Coordinates
version=1
nRows=8
nColumns=40
inDegrees=yes

Units are S.I. units (second, meters, Newtons, ...)
Angles are in degrees.

endheader
time	pelvis_tilt	pelvis_list	pelvis_rotation	pelvis_tx	pelvis_ty	pelvis_tz	hip_flexion_r	hip_adduction_r	hip_rotation_r	knee_angle_r	knee_angle_r_beta	ankle_angle_r	subtalar_angle_r	mtp_angle_r	hip_flexion_l	hip_adduction_l	hip_rotation_l	knee_angle_l	knee_angle_l_beta	ankle_angle_l	subtalar_angle_l	mtp_angle_l	lumbar_extension	lumbar_bending	lumbar_rotation	arm_flex_r	arm_add_r	arm_rot_r	elbow_flex_r	pro_sup_r	wrist_flex_r	wrist_dev_r	arm_flex_l	arm_add_l	arm_rot_l	elbow_flex_l	pro_sup_l	wrist_flex_l	wrist_dev_l
      3.86000000	     -3.95230192	     -4.37140884	     13.91034710	      1.10034518	      0.92492449	      0.53224558	      7.42994256	      4.10323113	    -18.65913630	     16.51118746	     16.51118746	     15.04327379	     -7.96702997	     -4.80102241	     27.15532119	     -7.16299031	      2.63113274	     16.48875770	     16.48875770	      5.95529791	     -0.38659089	      6.21292990	     -8.84231924	      3.46768078	      3.25599295	     49.96830539	    -19.16450159	     -8.95319565	     82.20282672	     44.84030854	      0.00000000	      0.00000000	    -13.40952138	     -8.03838180	     21.76484969	     28.32794300	     43.41715011	      0.00000000	      0.00000000
      3.88285714	     -4.04791866	     -4.50941664	     13.81908315	      1.10057498	      0.92418663	      0.52939902	      7.21515971	      4.11523651	    -18.51821523	     16.58052485	     16.58052485	     15.46693213	     -7.89409448	     -4.41276660	     26.77704364	     -7.23084995	      2.02090181	     15.72590591	     15.72590591	      3.87789889	     -0.24116557	      1.36359982	     -8.75257400	      3.45973447	      3.41489841	     50.45938806	    -18.88580181	     -8.69808892	     82.85910993	     44.85657837	      0.00000000	      0.00000000	    -12.78593963	     -8.20797145	     22.65598701	     27.62526793	     43.42282211	      0.00000000	      0.00000000
      3.90571429	     -4.19721255	     -4.55997350	     13.70276571	      1.10101607	      0.92361539	      0.52627355	      6.98533302	      4.00656719	    -18.40659977	     16.58221990	     16.58221990	     15.75788945	     -7.85204509	     -4.33724133	     26.63099240	     -7.16377279	      1.64676096	     15.71708327	     15.71708327	      3.26891189	     -0.46534677	      0.29818676	     -8.61617627	      3.33955437	      3.24493138	     50.86179123	    -18.18199362	     -8.41846845	     83.49027518	     44.84124992	      0.00000000	      0.00000000	    -12.47615610	     -8.42768451	     22.84788924	     27.48851019	     43.43693770	      0.00000000	      0.00000000
      3.92857143	     -4.27499541	     -4.64144340	     13.48412582	      1.10183269	      0.92317239	      0.52297496	      6.58415230	      3.97450210	    -18.15331107	     16.44221631	     16.44221631	     16.11117963	     -7.60900428	     -3.89857570	     26.36433116	     -7.13144820	      1.54902915	     15.78700151	     15.78700151	      1.87961785	     -1.53052253	     -2.69759193	     -8.51013258	      3.23149070	      3.30756873	     51.11729395	    -17.93044912	     -8.10108783	     83.87742492	     44.84943551	      0.00000000	      0.00000000	    -12.00714952	     -8.69986240	     23.17949289	     27.17868844	     43.48167638	      0.00000000	      0.00000000
      3.95142857	     -4.34993500	     -4.65755362	     13.23012685	      1.10282388	      0.92291878	      0.51945645	      6.11692467	      3.86078711	    -17.93463665	     16.22796498	     16.22796498	     16.32199034	     -7.38681136	     -3.79300679	     26.24117887	     -7.03756528	      1.48954949	     16.36761493	     16.36761493	      1.61217828	     -2.44485570	     -3.28093699	     -8.40459366	      3.06623747	      3.38906658	     51.34209063	    -17.64278446	     -7.94001272	     84.08205846	     44.84813848	      0.00000000	      0.00000000	    -11.59368924	     -9.05404081	     23.20127798	     27.16240053	     43.51238475	      0.00000000	      0.00000000
      3.97428571	     -4.49066606	     -4.57778501	     12.88004475	      1.10395217	      0.92276019	      0.51583297	      5.68603468	      3.62241495	    -17.59273853	     16.00692158	     16.00692158	     16.50527166	     -7.19241427	     -3.77771198	     26.09651264	     -6.88135439	      1.23850888	     16.92744371	     16.92744371	      1.61260071	     -3.01903925	     -3.45331242	     -8.22547039	      2.76666404	      3.51431953	     51.45018017	    -17.34095896	     -7.78236775	     84.17380610	     44.84161806	      0.00000000	      0.00000000	    -11.15517047	     -9.52967372	     23.13494596	     27.16616126	     43.53200491	      0.00000000	      0.00000000
      3.99714286	     -4.44804957	     -4.66419625	     12.58580575	      1.10519564	      0.92274882	      0.51187075	      4.91380162	      3.61718763	    -17.47714178	     15.44046424	     15.44046424	     16.59229218	     -6.69705439	     -3.54189878	     26.09010001	     -6.79176884	      1.65306532	     18.01352842	     18.01352842	      1.62446845	     -4.60539309	     -3.87683639	     -8.22405061	      2.75311707	      3.55880848	     51.67174665	    -17.16499805	     -7.50869841	     84.35195930	     44.83408316	      0.00000000	      0.00000000	    -10.78194934	     -9.84026655	     23.11981353	     27.11339610	     43.55829196	      0.00000000	      0.00000000
      4.02000000	     -4.51480137	     -4.62738404	     12.21060763	      1.10636706	      0.92280875	      0.50777386	      4.26938862	      3.41510416	    -17.30057270	     14.95173714	     14.95173714	     16.71468760	     -6.09908611	     -3.30776843	     25.97477414	     -6.54082555	      2.04773683	     18.75447235	     18.75447235	      1.67352191	     -6.12425329	     -4.02334213	     -8.13648461	      2.60245787	      3.68023177	     51.83608618	    -17.06430505	     -7.15833165	     84.37351925	     44.83048549	      0.00000000	      0.00000000	    -10.32432623	    -10.24317718	     23.07194093	     27.08795616	     43.59484614	      0.00000000	      0.00000000
